<svg id="그룹_3213" data-name="그룹 3213" xmlns="http://www.w3.org/2000/svg" width="203.96" height="58.966" viewBox="0 0 203.96 58.966">
  <path id="패스_1380" data-name="패스 1380" d="M223.483,237.941a29.483,29.483,0,1,1,29.482-29.484A29.516,29.516,0,0,1,223.483,237.941Zm0-54.54a25.056,25.056,0,1,0,25.056,25.056A25.086,25.086,0,0,0,223.483,183.4Z" transform="translate(-49.005 -178.975)"/>
  <path id="패스_1381" data-name="패스 1381" d="M68.891,237.831V179.155h4.426V233.4h44.959v-54.25H122.7v58.676Z" transform="translate(-68.891 -178.946)"/>
  <rect id="사각형_2749" data-name="사각형 2749" width="5.051" height="10.589" transform="translate(24.38 0.145)"/>
  <path id="패스_1382" data-name="패스 1382" d="M129.857,237.907l31.2-58.8,31.091,58.8h-5.68l-25.41-48.2L135.565,237.92Z" transform="translate(-59.201 -178.954)"/>
</svg>
