<?xml version="1.0" standalone="no"?>
<!DOCTYPE svg PUBLIC "-//W3C//DTD SVG 20010904//EN"
 "http://www.w3.org/TR/2001/REC-SVG-20010904/DTD/svg10.dtd">
<svg version="1.0" xmlns="http://www.w3.org/2000/svg"
 width="1000.000000pt" height="1000.000000pt" viewBox="0 0 1000.000000 1000.000000"
 preserveAspectRatio="xMidYMid meet">

<g transform="translate(0.000000,1000.000000) scale(0.100000,-0.100000)"
fill="#000000" stroke="none">
<path d="M7178 5930 c-170 -27 -334 -99 -463 -203 -219 -178 -345 -443 -345
-727 0 -222 79 -437 226 -615 105 -126 315 -254 489 -297 115 -28 324 -31 427
-5 296 73 523 259 647 530 69 149 93 289 80 472 -24 331 -252 647 -560 777
-150 63 -357 91 -501 68z m255 -145 c392 -68 667 -392 667 -785 0 -274 -133
-518 -364 -669 -91 -59 -190 -96 -310 -117 -159 -28 -309 -4 -472 76 -221 108
-382 320 -430 567 -91 477 282 929 777 942 26 0 85 -6 132 -14z"/>
<path d="M1752 4998 l3 -933 855 0 855 0 3 933 2 932 -70 0 -70 0 0 -860 0
-860 -715 0 -715 0 0 860 0 860 -75 0 -75 0 2 -932z"/>
<path d="M2530 5765 l0 -165 80 0 80 0 0 165 0 165 -80 0 -80 0 0 -165z"/>
<path d="M4520 5038 c-260 -491 -484 -912 -498 -935 l-24 -43 94 0 93 0 405
765 c222 421 407 761 411 757 3 -4 186 -348 405 -764 l399 -758 91 0 92 0
-490 928 c-270 510 -493 931 -497 935 -4 4 -221 -394 -481 -885z"/>
</g>
</svg>
