<svg xmlns="http://www.w3.org/2000/svg" width="60" height="60" viewBox="0 0 60 60">
  <g id="그룹_16488" data-name="그룹 16488" transform="translate(-1715 -636)">
    <rect id="사각형_665" data-name="사각형 665" width="60" height="60" rx="30" transform="translate(1715 636)" fill="#363636"/>
    <g id="그룹_4122" data-name="그룹 4122" transform="translate(1603.361 -308.355)">
      <path id="패스_18290" data-name="패스 18290" d="M151.4,1001.373a16.529,16.529,0,0,1-1.494,2.789c-.971,1.477-2.338,3.317-4.032,3.333-1.506.014-1.893-.98-3.936-.969s-2.47.986-3.976.973c-1.694-.016-2.99-1.677-3.961-3.154-2.713-4.13-3-8.978-1.324-11.554a6,6,0,0,1,4.829-2.9c1.8,0,2.925.985,4.41.985,1.44,0,2.318-.986,4.395-.986a5.86,5.86,0,0,1,4.418,2.333A5.055,5.055,0,0,0,151.4,1001.373Z" transform="translate(0 -22.146)" fill="#fff"/>
      <g id="그룹_3933" data-name="그룹 3933" transform="translate(141.136 962.355)">
        <path id="패스_18291" data-name="패스 18291" d="M183.807,966.089a5.041,5.041,0,0,0,1.119-3.734,5.447,5.447,0,0,0-3.516,1.891,4.679,4.679,0,0,0-1.149,3.642A4.6,4.6,0,0,0,183.807,966.089Z" transform="translate(-180.207 -962.355)" fill="#fff"/>
      </g>
    </g>
  </g>
</svg>
