<svg xmlns="http://www.w3.org/2000/svg" width="60" height="60" viewBox="0 0 60 60">
  <g id="그룹_4128" data-name="그룹 4128" transform="translate(-1457 -636)">
    <rect id="사각형_662" data-name="사각형 662" width="60" height="60" rx="30" transform="translate(1457 636)" fill="#ffe300"/>
    <g id="sns_kakao" transform="translate(1476 656)">
      <path id="패스_18368" data-name="패스 18368" d="M-470.314,106.347c-6.344,0-11.488,4.062-11.488,9.074,0,3.224,2.132,6.047,5.332,7.662l-1.084,4.042a.337.337,0,0,0,.082.345.329.329,0,0,0,.235.1.334.334,0,0,0,.2-.077l4.656-3.144a14.57,14.57,0,0,0,2.068.151c6.344,0,11.489-4.062,11.489-9.075s-5.145-9.074-11.489-9.074" transform="translate(481.802 -106.347)" fill="#2d1617"/>
    </g>
  </g>
</svg>
