<svg id="ico_star" xmlns="http://www.w3.org/2000/svg" xmlns:xlink="http://www.w3.org/1999/xlink" width="22" height="22" viewBox="0 0 22 22">
  <defs>
    <clipPath id="clip-path">
      <rect id="사각형_826" data-name="사각형 826" width="20.836" height="19.957" fill="none"/>
    </clipPath>
    <clipPath id="clip-path-2">
      <path id="패스_18709" data-name="패스 18709" d="M9.268.6,6.479,4.668a1.393,1.393,0,0,1-.753.547L1,6.614A1.394,1.394,0,0,0,.29,8.8l3,3.91a1.4,1.4,0,0,1,.288.886l-.13,4.927a1.394,1.394,0,0,0,1.859,1.352l4.645-1.647a1.4,1.4,0,0,1,.932,0l4.645,1.647a1.394,1.394,0,0,0,1.859-1.352l-.13-4.927a1.392,1.392,0,0,1,.288-.886l3-3.91a1.378,1.378,0,0,0,.289-.815v-.06a1.392,1.392,0,0,0-1-1.312l-4.726-1.4a1.391,1.391,0,0,1-.753-.547L11.567.6a1.394,1.394,0,0,0-2.3,0" transform="translate(0 0.001)" fill="none"/>
    </clipPath>
    <linearGradient id="linear-gradient" x1="0.145" y1="0.842" x2="0.168" y2="0.842" gradientUnits="objectBoundingBox">
      <stop offset="0" stop-color="#ffdc52"/>
      <stop offset="1" stop-color="#ffa952"/>
    </linearGradient>
    <clipPath id="clip-path-3">
      <path id="패스_18710" data-name="패스 18710" d="M16,0V9.978l4.7-4.761-.005,0a1.389,1.389,0,0,1-.753-.548L17.151.6A1.385,1.385,0,0,0,16,0Z" transform="translate(-16.002 0.001)" fill="none"/>
    </clipPath>
    <linearGradient id="linear-gradient-2" x1="-0.836" y1="1.881" x2="-0.768" y2="1.881" gradientUnits="objectBoundingBox">
      <stop offset="0" stop-color="#ffe682"/>
      <stop offset="1" stop-color="#ffa952"/>
    </linearGradient>
    <clipPath id="clip-path-4">
      <path id="패스_18711" data-name="패스 18711" d="M16,12.772l10.321-2.519a1.377,1.377,0,0,0-.9-.845l-4.726-1.4Z" transform="translate(-16.002 -8.009)" fill="none"/>
    </clipPath>
    <linearGradient id="linear-gradient-3" x1="-1.427" y1="1.587" x2="-1.347" y2="1.587" xlink:href="#linear-gradient-2"/>
    <clipPath id="clip-path-6">
      <rect id="사각형_804" data-name="사각형 804" width="10.321" height="4.763" fill="none"/>
    </clipPath>
    <clipPath id="clip-path-7">
      <path id="패스_18713" data-name="패스 18713" d="M16,13.974,22.96,17a1.423,1.423,0,0,1,.17-.3l3-3.91a1.38,1.38,0,0,0,.193-1.341Z" transform="translate(-16.002 -11.455)" fill="none"/>
    </clipPath>
    <linearGradient id="linear-gradient-4" x1="-1.549" y1="1.348" x2="-1.464" y2="1.348" xlink:href="#linear-gradient"/>
    <clipPath id="clip-path-8">
      <path id="패스_18714" data-name="패스 18714" d="M22.4,25.03a1.384,1.384,0,0,0,.57-1.162l-.13-4.927a1.392,1.392,0,0,1,.118-.589L16,15.323Z" transform="translate(-16.002 -15.323)" fill="none"/>
    </clipPath>
    <linearGradient id="linear-gradient-5" x1="-0.673" y1="0.934" x2="-0.618" y2="0.934" xlink:href="#linear-gradient-2"/>
    <clipPath id="clip-path-10">
      <rect id="사각형_808" data-name="사각형 808" width="6.971" height="9.708" fill="none"/>
    </clipPath>
    <clipPath id="clip-path-11">
      <path id="패스_18717" data-name="패스 18717" d="M16,23.493a1.391,1.391,0,0,1,.465.08l4.645,1.647a1.383,1.383,0,0,0,1.289-.19L16,15.323Z" transform="translate(-16.002 -15.323)" fill="none"/>
    </clipPath>
    <linearGradient id="linear-gradient-6" x1="-0.672" y1="0.924" x2="-0.616" y2="0.924" xlink:href="#linear-gradient-2"/>
    <clipPath id="clip-path-13">
      <rect id="사각형_812" data-name="사각형 812" width="6.4" height="9.979" fill="none"/>
    </clipPath>
    <clipPath id="clip-path-14">
      <path id="패스_18718" data-name="패스 18718" d="M16,15.323l4.925,9.831.185.066a1.386,1.386,0,0,0,1.29-.19Z" transform="translate(-16.002 -15.323)" fill="none"/>
    </clipPath>
    <linearGradient id="linear-gradient-7" x1="-0.672" y1="0.923" x2="-0.616" y2="0.923" xlink:href="#linear-gradient-2"/>
    <clipPath id="clip-path-15">
      <path id="패스_18719" data-name="패스 18719" d="M13.572,0A1.386,1.386,0,0,0,12.423.6L9.633,4.668a1.4,1.4,0,0,1-.754.548l-.005,0,4.7,4.761Z" transform="translate(-8.874 0.001)" fill="none"/>
    </clipPath>
    <linearGradient id="linear-gradient-8" x1="-0.811" y1="1.917" x2="-0.706" y2="1.917" gradientUnits="objectBoundingBox">
      <stop offset="0" stop-color="#ffe682"/>
      <stop offset="0.191" stop-color="#ffa952"/>
      <stop offset="1" stop-color="#ffa952"/>
    </linearGradient>
    <clipPath id="clip-path-16">
      <path id="패스_18720" data-name="패스 18720" d="M1.14,9.408a1.376,1.376,0,0,0-.9.845l10.32,2.519L5.866,8.009Z" transform="translate(-0.238 -8.009)" fill="none"/>
    </clipPath>
    <linearGradient id="linear-gradient-9" x1="0.031" y1="2.025" x2="0.089" y2="2.025" xlink:href="#linear-gradient-2"/>
    <clipPath id="clip-path-17">
      <path id="패스_18721" data-name="패스 18721" d="M.38,12.8l3,3.91a1.42,1.42,0,0,1,.169.3l6.958-3.029L.188,11.455A1.376,1.376,0,0,0,.38,12.8" transform="translate(-0.094 -11.455)" fill="none"/>
    </clipPath>
    <linearGradient id="linear-gradient-10" x1="0.042" y1="1.768" x2="0.099" y2="1.768" xlink:href="#linear-gradient"/>
    <clipPath id="clip-path-19">
      <rect id="사각형_818" data-name="사각형 818" width="10.322" height="5.548" fill="none"/>
    </clipPath>
    <clipPath id="clip-path-20">
      <path id="패스_18722" data-name="패스 18722" d="M.237,11.455c-.1.277,8.688,3,8.688,3L3.5,16.823a1.586,1.586,0,0,1,.1.18l6.958-3.029Z" transform="translate(-0.236 -11.455)" fill="none"/>
    </clipPath>
    <linearGradient id="linear-gradient-11" x1="-0.19" y1="1.352" x2="-0.105" y2="1.352" xlink:href="#linear-gradient-2"/>
    <clipPath id="clip-path-21">
      <path id="패스_18723" data-name="패스 18723" d="M5.4,18.352a1.393,1.393,0,0,1,.118.589l-.131,4.927a1.384,1.384,0,0,0,.57,1.162l6.4-9.707Z" transform="translate(-5.383 -15.323)" fill="none"/>
    </clipPath>
    <linearGradient id="linear-gradient-12" x1="-0.095" y1="0.93" x2="-0.04" y2="0.93" xlink:href="#linear-gradient-2"/>
    <clipPath id="clip-path-23">
      <rect id="사각형_821" data-name="사각형 821" width="4.509" height="9.723" fill="none"/>
    </clipPath>
    <clipPath id="clip-path-24">
      <rect id="사각형_824" data-name="사각형 824" width="20.829" height="13.454" fill="none"/>
    </clipPath>
    <clipPath id="clip-path-25">
      <path id="패스_18725" data-name="패스 18725" d="M16.674,21.166l-4.645-1.647a1.4,1.4,0,0,0-.932,0L6.453,21.166a1.4,1.4,0,0,1-1.86-1.351l.131-4.928A1.392,1.392,0,0,0,4.436,14l-3-3.909c-.026-.033-.04-.07-.062-.1L1,10.1a1.4,1.4,0,0,0-.71,2.187l3,3.909a1.4,1.4,0,0,1,.288.886l-.13,4.928a1.394,1.394,0,0,0,1.859,1.351l4.645-1.647a1.4,1.4,0,0,1,.932,0l4.645,1.647a1.4,1.4,0,0,0,1.86-1.351l-.021-.78a1.372,1.372,0,0,1-.693-.061" transform="translate(0 -9.987)" fill="none"/>
    </clipPath>
    <linearGradient id="linear-gradient-13" x1="0.118" y1="0.808" x2="0.147" y2="0.808" xlink:href="#linear-gradient-2"/>
    <clipPath id="clip-path-26">
      <path id="패스_18726" data-name="패스 18726" d="M28.554,14.67a1.4,1.4,0,0,0-.288.886l0,.183,2.139-2.786a1.373,1.373,0,0,0,.267-1.048Z" transform="translate(-28.266 -11.905)" fill="none"/>
    </clipPath>
    <linearGradient id="linear-gradient-14" x1="-4.138" y1="2.758" x2="-3.984" y2="2.758" xlink:href="#linear-gradient-2"/>
  </defs>
  <rect id="사각형_5452" data-name="사각형 5452" width="22" height="22" fill="none"/>
  <g id="그룹_19369" data-name="그룹 19369" transform="translate(-996.019 -435)">
    <g id="그룹_4475" data-name="그룹 4475" transform="translate(996.562 436)">
      <g id="그룹_4474" data-name="그룹 4474" clip-path="url(#clip-path)">
        <g id="그룹_4419" data-name="그룹 4419" transform="translate(0 -0.001)">
          <g id="그룹_4418" data-name="그룹 4418" clip-path="url(#clip-path-2)">
            <rect id="사각형_801" data-name="사각형 801" width="28.927" height="28.706" transform="matrix(0.816, -0.578, 0.578, 0.816, -9.836, 6.757)" fill="url(#linear-gradient)"/>
          </g>
        </g>
        <g id="그룹_4421" data-name="그룹 4421" transform="translate(10.418 -0.001)">
          <g id="그룹_4420" data-name="그룹 4420" clip-path="url(#clip-path-3)">
            <rect id="사각형_802" data-name="사각형 802" width="9.555" height="10.873" transform="translate(-4.678 3.258) rotate(-34.843)" fill="url(#linear-gradient-2)"/>
          </g>
        </g>
        <g id="그룹_4423" data-name="그룹 4423" transform="translate(10.418 5.216)">
          <g id="그룹_4422" data-name="그룹 4422" clip-path="url(#clip-path-4)">
            <rect id="사각형_803" data-name="사각형 803" width="8.083" height="11.335" transform="matrix(0.351, -0.936, 0.936, 0.351, -1.565, 4.176)" fill="url(#linear-gradient-3)"/>
          </g>
        </g>
        <g id="그룹_4428" data-name="그룹 4428" transform="translate(0 0)">
          <g id="그룹_4427" data-name="그룹 4427" clip-path="url(#clip-path)">
            <g id="그룹_4426" data-name="그룹 4426" transform="translate(10.418 5.216)" opacity="0.2">
              <g id="그룹_4425" data-name="그룹 4425">
                <g id="그룹_4424" data-name="그룹 4424" clip-path="url(#clip-path-6)">
                  <path id="패스_18712" data-name="패스 18712" d="M20.4,8.539l4.725,1.4a1.344,1.344,0,0,1,.662.447l.533-.13a1.379,1.379,0,0,0-.9-.846l-4.725-1.4L16,12.772l.3-.073Z" transform="translate(-16.002 -8.01)" fill="#faffd0"/>
                </g>
              </g>
            </g>
          </g>
        </g>
        <g id="그룹_4430" data-name="그룹 4430" transform="translate(10.418 7.46)">
          <g id="그룹_4429" data-name="그룹 4429" clip-path="url(#clip-path-7)">
            <rect id="사각형_806" data-name="사각형 806" width="7.642" height="11.42" transform="translate(-1.148 5.3) rotate(-77.775)" fill="url(#linear-gradient-4)"/>
          </g>
        </g>
        <g id="그룹_4432" data-name="그룹 4432" transform="translate(10.418 9.979)">
          <g id="그룹_4431" data-name="그룹 4431" clip-path="url(#clip-path-8)">
            <rect id="사각형_807" data-name="사각형 807" width="11.855" height="11.733" transform="translate(-4.842 5.162) rotate(-46.818)" fill="url(#linear-gradient-5)"/>
          </g>
        </g>
        <g id="그룹_4437" data-name="그룹 4437" transform="translate(0 0)">
          <g id="그룹_4436" data-name="그룹 4436" clip-path="url(#clip-path)">
            <g id="그룹_4435" data-name="그룹 4435" transform="translate(10.418 9.979)" opacity="0.2">
              <g id="그룹_4434" data-name="그룹 4434">
                <g id="그룹_4433" data-name="그룹 4433" clip-path="url(#clip-path-10)">
                  <path id="패스_18715" data-name="패스 18715" d="M26.534,19.908l.009.341a1.473,1.473,0,0,1,.092-.3Z" transform="translate(-19.677 -16.922)" fill="#fff"/>
                  <path id="패스_18716" data-name="패스 18716" d="M22.4,23.739,16,15.323l6.4,9.708a1.385,1.385,0,0,0,.57-1.162l-.027-1.017a1.384,1.384,0,0,1-.544.886" transform="translate(-16.002 -15.323)" fill="#fff"/>
                </g>
              </g>
            </g>
          </g>
        </g>
        <g id="그룹_4439" data-name="그룹 4439" transform="translate(10.418 9.979)">
          <g id="그룹_4438" data-name="그룹 4438" clip-path="url(#clip-path-11)">
            <rect id="사각형_810" data-name="사각형 810" width="11.618" height="11.657" transform="matrix(0.712, -0.702, 0.702, 0.712, -5.029, 4.954)" fill="url(#linear-gradient-6)"/>
          </g>
        </g>
        <g id="그룹_4446" data-name="그룹 4446" transform="translate(0 0)">
          <g id="그룹_4445" data-name="그룹 4445" clip-path="url(#clip-path)">
            <g id="그룹_4444" data-name="그룹 4444" transform="translate(10.418 9.979)" opacity="0.3" style="mix-blend-mode: multiply;isolation: isolate">
              <g id="그룹_4443" data-name="그룹 4443">
                <g id="그룹_4442" data-name="그룹 4442" clip-path="url(#clip-path-13)">
                  <g id="그룹_4441" data-name="그룹 4441" transform="translate(0 0)">
                    <g id="그룹_4440" data-name="그룹 4440" clip-path="url(#clip-path-14)">
                      <rect id="사각형_811" data-name="사각형 811" width="11.618" height="11.657" transform="matrix(0.712, -0.702, 0.702, 0.712, -5.029, 4.954)" fill="url(#linear-gradient-7)"/>
                    </g>
                  </g>
                </g>
              </g>
            </g>
          </g>
        </g>
        <g id="그룹_4448" data-name="그룹 4448" transform="translate(5.777 -0.001)">
          <g id="그룹_4447" data-name="그룹 4447" clip-path="url(#clip-path-15)">
            <rect id="사각형_814" data-name="사각형 814" width="6.196" height="10.59" transform="translate(-1.537 0.243) rotate(-8.973)" fill="url(#linear-gradient-8)"/>
          </g>
        </g>
        <g id="그룹_4450" data-name="그룹 4450" transform="translate(0.155 5.216)">
          <g id="그룹_4449" data-name="그룹 4449" clip-path="url(#clip-path-16)">
            <rect id="사각형_815" data-name="사각형 815" width="11.335" height="8.083" transform="translate(-1.565 0.587) rotate(-20.556)" fill="url(#linear-gradient-9)"/>
          </g>
        </g>
        <g id="그룹_4452" data-name="그룹 4452" transform="translate(0.061 7.46)">
          <g id="그룹_4451" data-name="그룹 4451" clip-path="url(#clip-path-17)">
            <rect id="사각형_816" data-name="사각형 816" width="11.42" height="7.642" transform="matrix(0.977, -0.212, 0.212, 0.977, -1.217, 0.249)" fill="url(#linear-gradient-10)"/>
          </g>
        </g>
        <g id="그룹_4459" data-name="그룹 4459" transform="translate(0 0)">
          <g id="그룹_4458" data-name="그룹 4458" clip-path="url(#clip-path)">
            <g id="그룹_4457" data-name="그룹 4457" transform="translate(0.154 7.46)" opacity="0.1" style="mix-blend-mode: multiply;isolation: isolate">
              <g id="그룹_4456" data-name="그룹 4456">
                <g id="그룹_4455" data-name="그룹 4455" clip-path="url(#clip-path-19)">
                  <g id="그룹_4454" data-name="그룹 4454" transform="translate(0 -0.001)">
                    <g id="그룹_4453" data-name="그룹 4453" clip-path="url(#clip-path-20)">
                      <rect id="사각형_817" data-name="사각형 817" width="7.63" height="11.363" transform="matrix(0.212, -0.977, 0.977, 0.212, -1.251, 5.3)" fill="url(#linear-gradient-11)"/>
                    </g>
                  </g>
                </g>
              </g>
            </g>
          </g>
        </g>
        <g id="그룹_4461" data-name="그룹 4461" transform="translate(3.505 9.979)">
          <g id="그룹_4460" data-name="그룹 4460" clip-path="url(#clip-path-21)">
            <rect id="사각형_820" data-name="사각형 820" width="11.733" height="11.855" transform="translate(-4.855 4.546) rotate(-43.182)" fill="url(#linear-gradient-12)"/>
          </g>
        </g>
        <g id="그룹_4473" data-name="그룹 4473" transform="translate(0 0)">
          <g id="그룹_4472" data-name="그룹 4472" clip-path="url(#clip-path)">
            <g id="그룹_4464" data-name="그룹 4464" transform="translate(10.418 0.256)" opacity="0.1">
              <g id="그룹_4463" data-name="그룹 4463">
                <g id="그룹_4462" data-name="그룹 4462" clip-path="url(#clip-path-23)">
                  <path id="패스_18724" data-name="패스 18724" d="M16.026.393,16,10.115l4.508-4.482L16.781,8.462Z" transform="translate(-16.002 -0.393)" fill="#fff"/>
                </g>
              </g>
            </g>
            <g id="그룹_4471" data-name="그룹 4471" transform="translate(0 6.504)" opacity="0.3" style="mix-blend-mode: multiply;isolation: isolate">
              <g id="그룹_4470" data-name="그룹 4470">
                <g id="그룹_4469" data-name="그룹 4469" clip-path="url(#clip-path-24)">
                  <g id="그룹_4466" data-name="그룹 4466" transform="translate(0 0)">
                    <g id="그룹_4465" data-name="그룹 4465" clip-path="url(#clip-path-25)">
                      <rect id="사각형_822" data-name="사각형 822" width="22.376" height="21.422" transform="matrix(0.816, -0.578, 0.578, 0.816, -6.768, 4.582)" fill="url(#linear-gradient-13)"/>
                    </g>
                  </g>
                  <g id="그룹_4468" data-name="그룹 4468" transform="translate(18.402 1.249)">
                    <g id="그룹_4467" data-name="그룹 4467" clip-path="url(#clip-path-26)">
                      <rect id="사각형_823" data-name="사각형 823" width="4.232" height="4.556" transform="matrix(0.816, -0.578, 0.578, 0.816, -1.817, 1.283)" fill="url(#linear-gradient-14)"/>
                    </g>
                  </g>
                </g>
              </g>
            </g>
          </g>
        </g>
      </g>
    </g>
  </g>
</svg>
