<svg id="top_noti_m" xmlns="http://www.w3.org/2000/svg" width="30" height="30" viewBox="0 0 30 30">
  <rect id="사각형_5412" data-name="사각형 5412" width="30" height="30" fill="none"/>
  <path id="패스_20224" data-name="패스 20224" d="M0,0A2.078,2.078,0,0,0,1.523-.635a2.078,2.078,0,0,0,.635-1.523H-2.158A2.078,2.078,0,0,0-1.523-.635,2.078,2.078,0,0,0,0,0ZM8.582-4.773l-.99-2.158v-4.977a7.443,7.443,0,0,0-.406-2.463,7.61,7.61,0,0,0-1.13-2.12,7.622,7.622,0,0,0-1.727-1.65A7.7,7.7,0,0,0,2.158-19.2v-.3a2.078,2.078,0,0,0-.635-1.523A2.078,2.078,0,0,0,0-21.658a2.078,2.078,0,0,0-1.523.635A2.078,2.078,0,0,0-2.158-19.5v.3a7.7,7.7,0,0,0-2.171,1.054,7.622,7.622,0,0,0-1.727,1.65,7.61,7.61,0,0,0-1.13,2.12,7.443,7.443,0,0,0-.406,2.463v4.977l-.99,2.158q-.025.1-.051.216a1,1,0,0,0-.025.216,1.054,1.054,0,0,0,.317.774,1.024,1.024,0,0,0,.749.317H7.592a1.024,1.024,0,0,0,.749-.317,1.054,1.054,0,0,0,.317-.774,1,1,0,0,0-.025-.216Q8.607-4.672,8.582-4.773ZM2.158-5.408H-5.891l.279-.635.2-.432V-12.01a5.343,5.343,0,0,1,.457-2.082A5.6,5.6,0,0,1-3.8-15.78a5.371,5.371,0,0,1,1.7-1.143A5.261,5.261,0,0,1,0-17.342a5.261,5.261,0,0,1,2.095.419A5.371,5.371,0,0,1,3.8-15.78a5.6,5.6,0,0,1,1.155,1.688,5.343,5.343,0,0,1,.457,2.082v5.535l.482,1.066Z" transform="translate(15 26)" fill="#fff"/>
</svg>
