<svg id="top_my_pc" xmlns="http://www.w3.org/2000/svg" width="30" height="30" viewBox="0 0 30 30">
  <g id="그룹_4258" data-name="그룹 4258" transform="translate(-0.353)">
    <g id="그룹_4255" data-name="그룹 4255" transform="translate(3.947 3.947)">
      <g id="타원_119_-_윤곽선" data-name="타원 119 - 윤곽선" transform="translate(4.286)" fill="#fff">
        <path d="M 7.017674446105957 14.13534450531006 C 3.092974424362183 14.13534450531006 -0.09999555349349976 10.94237422943115 -0.09999555349349976 7.017674446105957 C -0.09999555349349976 3.092974424362183 3.092974424362183 -0.09999555349349976 7.017674446105957 -0.09999555349349976 C 10.94237422943115 -0.09999555349349976 14.13534450531006 3.092974424362183 14.13534450531006 7.017674446105957 C 14.13534450531006 10.94237422943115 10.94237422943115 14.13534450531006 7.017674446105957 14.13534450531006 Z M 7.017674446105957 2.105054378509521 C 4.308844566345215 2.105054378509521 2.105054378509521 4.308844566345215 2.105054378509521 7.017674446105957 C 2.105054378509521 9.726504325866699 4.308844566345215 11.93029403686523 7.017674446105957 11.93029403686523 C 9.726504325866699 11.93029403686523 11.93029403686523 9.726504325866699 11.93029403686523 7.017674446105957 C 11.93029403686523 4.308844566345215 9.726504325866699 2.105054378509521 7.017674446105957 2.105054378509521 Z" stroke="none"/>
        <path d="M 7.017674446105957 4.76837158203125e-06 C 3.141924858093262 4.76837158203125e-06 4.76837158203125e-06 3.141924858093262 4.76837158203125e-06 7.017674446105957 C 4.76837158203125e-06 10.89342498779297 3.141924858093262 14.03534412384033 7.017674446105957 14.03534412384033 C 10.89342498779297 14.03534412384033 14.03534412384033 10.89342498779297 14.03534412384033 7.017674446105957 C 14.03534412384033 3.141924858093262 10.89342498779297 4.76837158203125e-06 7.017674446105957 4.76837158203125e-06 M 7.017674446105957 12.03029441833496 C 4.253704071044922 12.03029441833496 2.005054473876953 9.781644821166992 2.005054473876953 7.017674446105957 C 2.005054473876953 4.253704071044922 4.253704071044922 2.005054473876953 7.017674446105957 2.005054473876953 C 9.781644821166992 2.005054473876953 12.03029441833496 4.253704071044922 12.03029441833496 7.017674446105957 C 12.03029441833496 9.781644821166992 9.781644821166992 12.03029441833496 7.017674446105957 12.03029441833496 M 7.017674446105957 -0.1999959945678711 C 10.99751472473145 -0.1999959945678711 14.23534488677979 3.037834167480469 14.23534488677979 7.017674446105957 C 14.23534488677979 10.99751472473145 10.99751472473145 14.23534488677979 7.017674446105957 14.23534488677979 C 3.037834167480469 14.23534488677979 -0.1999959945678711 10.99751472473145 -0.1999959945678711 7.017674446105957 C -0.1999959945678711 3.037834167480469 3.037834167480469 -0.1999959945678711 7.017674446105957 -0.1999959945678711 Z M 7.017674446105957 11.83029460906982 C 9.671363830566406 11.83029460906982 11.83029460906982 9.671363830566406 11.83029460906982 7.017674446105957 C 11.83029460906982 4.363984107971191 9.671363830566406 2.20505428314209 7.017674446105957 2.20505428314209 C 4.363984107971191 2.20505428314209 2.20505428314209 4.363984107971191 2.20505428314209 7.017674446105957 C 2.20505428314209 9.671363830566406 4.363984107971191 11.83029460906982 7.017674446105957 11.83029460906982 Z" stroke="none" fill="#fff"/>
      </g>
      <path id="패스_18399" data-name="패스 18399" d="M-8890.2,11868.994a1,1,0,0,1-.985-.829,9.952,9.952,0,0,0-3.443-6.278,1,1,0,0,1-.251-1.394,1,1,0,0,1,1.395-.253,11.889,11.889,0,0,1,4.275,7.578,1,1,0,0,1-.816,1.161A1.053,1.053,0,0,1-8890.2,11868.994Z" transform="translate(8911.454 -11846.669)" fill="#fff" stroke="#fff" stroke-linecap="round" stroke-width="0.4"/>
      <path id="패스_18399-2" data-name="패스 18399" d="M-8894.059,11868.994a1,1,0,0,0,.985-.829,9.95,9.95,0,0,1,3.444-6.278,1,1,0,0,0,.252-1.394,1,1,0,0,0-1.4-.253,11.875,11.875,0,0,0-4.275,7.578,1,1,0,0,0,.815,1.161A1.053,1.053,0,0,0-8894.059,11868.994Z" transform="translate(8895.063 -11846.669)" fill="#fff" stroke="#fff" stroke-linecap="round" stroke-width="0.4"/>
    </g>
    <rect id="사각형_744" data-name="사각형 744" width="30" height="30" transform="translate(0.353)" fill="none"/>
  </g>
</svg>
