<svg id="top_cart_m" xmlns="http://www.w3.org/2000/svg" xmlns:xlink="http://www.w3.org/1999/xlink" width="30" height="30" viewBox="0 0 30 30">
  <defs>
    <clipPath id="clip-path">
      <rect id="사각형_5416" data-name="사각형 5416" width="30" height="30" transform="translate(-1.005 -1.639)" fill="#a12bd5"/>
    </clipPath>
  </defs>
  <g id="마스크_그룹_18936" data-name="마스크 그룹 18936" transform="translate(1.005 1.639)" clip-path="url(#clip-path)">
    <g id="그룹_18945" data-name="그룹 18945" transform="translate(3.995 3.265)">
      <path id="패스_20200" data-name="패스 20200" d="M13.262,37.877a2.551,2.551,0,1,1,2.551-2.551,2.554,2.554,0,0,1-2.551,2.551m0-3.685A1.135,1.135,0,1,0,14.4,35.326a1.136,1.136,0,0,0-1.135-1.134" transform="translate(-5.655 -17.288)" fill="#fff" stroke="#fff" stroke-width="1.2"/>
      <path id="패스_20194" data-name="패스 20194" d="M22.295,17.419h-8.43a.708.708,0,0,1,0-1.416h8.43a1.141,1.141,0,0,0,1.027-.827l1.184-5.4a.392.392,0,0,0-.422-.524H20.738a.708.708,0,1,1,0-1.416h3.346a1.8,1.8,0,0,1,1.8,2.244l-1.183,5.4a2.552,2.552,0,0,1-2.411,1.941" transform="translate(-6.946 -4.118)" fill="#fff" stroke="#fff" stroke-width="1.2"/>
      <path id="패스_20195" data-name="패스 20195" d="M7.018,16.842a.708.708,0,0,1-.7-.615L4.48,2.376a.952.952,0,0,0-.895-.79H.708A.708.708,0,1,1,.708.17H3.585a2.352,2.352,0,0,1,2.3,2.022L7.721,16.041a.708.708,0,0,1-.7.8" transform="translate(0 -0.074)" fill="#fff" stroke="#fff" stroke-width="1.2"/>
      <path id="패스_20196" data-name="패스 20196" d="M13.262,37.877a2.551,2.551,0,1,1,2.551-2.551,2.554,2.554,0,0,1-2.551,2.551m0-3.685A1.135,1.135,0,1,0,14.4,35.326a1.136,1.136,0,0,0-1.135-1.134" transform="translate(2.666 -17.288)" fill="#fff" stroke="#fff" stroke-width="1.2"/>
    </g>
  </g>
</svg>
